<svg xmlns="http://www.w3.org/2000/svg" viewBox="0 0 497.33 96.8"><defs><style>.cls-1{fill:#003f63;}</style></defs><g id="Layer_2" data-name="Layer 2"><g id="Layer_1-2" data-name="Layer 1"><path class="cls-1" d="M1.81,63.6H14a1.74,1.74,0,0,1,1.62,1.28c1.18,3.64,4.85,5.33,10.07,5.33,4.34,0,7.92-1.5,7.92-4.49,0-2.57-2.8-3.48-5.34-3.89L18,60.16C7.88,58.53,2,52.82,2,44.85c0-9.73,9-16.11,21.77-16.11,11.68,0,21.21,5.33,23.14,14.64a1.84,1.84,0,0,1-1.76,2.25H33a1.71,1.71,0,0,1-1.63-1.05c-1-2.76-4.31-4.16-8-4.16-4,0-7,1.67-7,4.12,0,1.85,1.68,3.26,5.3,3.89L32,50.24c10.77,1.9,16.11,7.11,16.11,14.81,0,10.18-9.1,16.84-22.59,16.84-13.33,0-23.65-6-25.46-16.1A1.84,1.84,0,0,1,1.81,63.6"/><path class="cls-1" d="M51.68,59.75v-28A1.8,1.8,0,0,1,53.48,30H64a1.81,1.81,0,0,1,1.81,1.81V57.49c0,7.15,3.48,11.09,9.77,11.09s9.79-3.94,9.79-11.09V31.77A1.8,1.8,0,0,1,87.21,30H97.73a1.81,1.81,0,0,1,1.8,1.81v28c0,13.31-9.51,22.14-23.91,22.14S51.68,73.06,51.68,59.75"/><path class="cls-1" d="M143.33,55.45c0-8-4.94-13.18-12.59-13.18S118.2,47.43,118.2,55.45s5,13.17,12.54,13.17,12.59-5.25,12.59-13.17M106,30H116.4a1.8,1.8,0,0,1,1.8,1.81v4.08c3.26-4.62,8.28-7,15-7,14.44,0,24.36,10.78,24.36,26.58S147.67,82,133.23,82c-5,0-9-1.29-12.12-3.83a1.79,1.79,0,0,0-2.91,1.4V94.68a1.79,1.79,0,0,1-1.8,1.8H106a1.79,1.79,0,0,1-1.8-1.8V31.77A1.8,1.8,0,0,1,106,30"/><path class="cls-1" d="M200.15,55.45c0-8-4.94-13.18-12.58-13.18S175,47.43,175,55.45s5,13.17,12.54,13.17,12.58-5.25,12.58-13.17M162.79,30h10.44a1.81,1.81,0,0,1,1.8,1.81v4.08c3.25-4.62,8.28-7,15-7,14.43,0,24.35,10.78,24.35,26.58S204.49,82,190.06,82c-5,0-9-1.29-12.12-3.83a1.79,1.79,0,0,0-2.91,1.4V94.68a1.8,1.8,0,0,1-1.8,1.8H162.79a1.8,1.8,0,0,1-1.8-1.8V31.77a1.81,1.81,0,0,1,1.8-1.81"/><path class="cls-1" d="M275,30h12.2a1.8,1.8,0,0,1,1.73,1.3l10.45,36.19h2L311.9,31.26a1.8,1.8,0,0,1,1.73-1.3h12.24a1.8,1.8,0,0,1,1.71,2.38L311.14,80.85h-3.62V95a1.8,1.8,0,0,1-1.8,1.8H295.16a1.8,1.8,0,0,1-1.81-1.8V80.85h-3.62l-16.4-48.51A1.81,1.81,0,0,1,275,30"/><path class="cls-1" d="M333.54,14.25H344.1a1.81,1.81,0,0,1,1.8,1.8V45.5a1.8,1.8,0,0,0,1.8,1.8h8.4a1.78,1.78,0,0,0,1.55-.88l9.23-15.57a1.79,1.79,0,0,1,1.55-.89h12.51a1.81,1.81,0,0,1,1.52,2.78L369.18,53.41a1.8,1.8,0,0,0,0,2L384.44,78A1.8,1.8,0,0,1,383,80.85H370.49A1.8,1.8,0,0,1,369,80L357.38,61.55a1.79,1.79,0,0,0-1.52-.85H347.7a1.81,1.81,0,0,0-1.8,1.81V79a1.81,1.81,0,0,1-1.8,1.81H333.54A1.81,1.81,0,0,1,331.73,79v-63a1.81,1.81,0,0,1,1.81-1.8"/><path class="cls-1" d="M404.26,49.93h20.55a1.81,1.81,0,0,0,1.6-2.68c-2.28-3.9-6.22-6.25-11.82-6.25-5.35,0-9.55,2.29-11.92,6.23a1.81,1.81,0,0,0,1.59,2.7m-17,5.88c0-16.3,12-27.07,27.39-27.07,16.26,0,26.58,11.68,26.58,27.12v3.67h-37.8A1.81,1.81,0,0,0,401.77,62c2.08,4.85,6.68,7.6,12.91,7.6,4.81,0,8.67-1.65,10.31-4.75a1.89,1.89,0,0,1,1.65-1.09h11.82a1.82,1.82,0,0,1,1.67,2.52c-4.05,10.22-13.39,15.59-25.26,15.59-16.75,0-27.58-10.69-27.58-26.08"/><path class="cls-1" d="M444.69,30h12.2a1.8,1.8,0,0,1,1.73,1.3l10.45,36.19h2l10.45-36.19a1.79,1.79,0,0,1,1.73-1.3h12.25a1.81,1.81,0,0,1,1.71,2.38L480.79,80.85h-3.62V95a1.79,1.79,0,0,1-1.8,1.8H464.8A1.8,1.8,0,0,1,463,95V80.85h-3.62L443,32.34A1.8,1.8,0,0,1,444.69,30"/><path class="cls-1" d="M244.67,0a24.61,24.61,0,0,0-20.59,38.11l-5.25,24.26a15.11,15.11,0,0,0,14.78,18.31h22.13a15.11,15.11,0,0,0,14.77-18.3l-5.25-24.26a24.77,24.77,0,0,0,3.43-19A24.45,24.45,0,0,0,249.89.55,24.89,24.89,0,0,0,244.67,0m0,12.61a12.49,12.49,0,0,1,2.62.28,12,12,0,0,1,4.28,21.56L258.18,65a2.5,2.5,0,0,1-2.44,3H233.61a2.5,2.5,0,0,1-2.45-3l6.62-30.59a12,12,0,0,1,6.89-21.84"/></g></g></svg>